<svg width="121" height="17" viewBox="0 0 121 17" fill="none" xmlns="http://www.w3.org/2000/svg">
    <g id="logo">
        <path d="M9.4599 16.8886H8.31964C3.75862 16.8886 0 13.093 0 8.44444C0 3.79591 3.75862 0.0429688 8.31964 0.0429688C12.8807 0.0429688 16.6815 3.83856 16.6815 8.48708V16.5474H13.3452V8.44444C13.3452 5.67238 11.1069 3.41209 8.31964 3.41209C5.57458 3.41209 3.3363 5.67238 3.3363 8.44444C3.3363 11.2165 5.57458 13.4768 8.31964 13.4768H9.4599V16.8886Z" fill="white"/>
<path d="M24.1989 16.5044H20.8625V8.44411C20.8625 3.79559 24.6212 0 29.2244 0H30.4069V3.41176H29.2244C26.4794 3.41176 24.2411 5.67206 24.2411 8.44411V16.5044H24.1989Z" fill="white"/>
<path d="M40.5424 16.9311C40.1201 16.9311 39.6978 16.8885 39.2332 16.8458C34.6722 16.1208 31.5471 11.8135 32.265 7.25026C32.9829 2.64438 37.2483 -0.511496 41.8094 0.170856C44.0054 0.512033 45.9481 1.70615 47.2573 3.53997L44.5544 5.54438C43.752 4.43556 42.6118 3.75321 41.3026 3.53997C38.5998 3.1135 36.0236 4.98997 35.6013 7.76203C35.179 10.4914 37.0372 13.0929 39.7822 13.5194C41.6404 13.8179 43.4986 13.0076 44.5967 11.4723L47.2995 13.4341C45.6947 15.6517 43.203 16.9311 40.5424 16.9311Z" fill="white"/>
<path d="M58.6175 16.8885C54.0142 16.8885 50.2556 13.0929 50.2556 8.48705V0.426758H53.5919V8.4444C53.5919 11.2165 55.8302 13.4768 58.5753 13.4768C61.3203 13.4768 63.5586 11.2165 63.5586 8.4444V0.426758H66.8949V8.4444C66.9371 13.0929 63.2208 16.8885 58.6175 16.8885Z" fill="white"/>
<path d="M81.7604 16.8885H80.3668C75.7635 16.8885 72.0049 13.0929 72.0049 8.48705V0.426758H75.3412V8.4444C75.3412 11.2165 77.5795 13.4768 80.3245 13.4768H81.7182V16.8885H81.7604Z" fill="white"/>
<path d="M92.4451 16.9312C87.8419 16.9312 84.0833 13.1356 84.0833 8.5297V0.426758H87.4195V8.48705C87.4195 11.2591 89.6578 13.5194 92.4029 13.5194C95.1479 13.5194 97.3862 11.2591 97.3862 8.48705V0.426758H100.723V8.48705C100.765 13.1356 97.0061 16.9312 92.4451 16.9312Z" fill="white"/>
<path d="M112.463 16.8885C111.365 16.8885 110.309 16.6752 109.295 16.2488L110.562 13.1355C111.154 13.3914 111.829 13.5193 112.463 13.5193C115.25 13.5193 117.488 11.2591 117.488 8.44434H120.825C120.825 13.1355 117.066 16.8885 112.463 16.8885Z" fill="white"/>
<path d="M107.438 8.44411H104.101C104.101 3.79559 107.86 0 112.463 0C113.73 0 114.955 0.298529 116.095 0.852941L114.659 3.88088C113.984 3.5397 113.266 3.36912 112.463 3.36912C109.676 3.36912 107.438 5.67206 107.438 8.44411Z" fill="white"/>
    </g>
</svg>
