<svg width="150" height="32" viewBox="0 0 150 32" fill="none" xmlns="http://www.w3.org/2000/svg">
<g clip-path="url(#clip0_764_997)">
    <g id="logo">
        <path d="M150 14.4774V11.8427H146.724V7.7468L146.614 7.78072L143.537 8.72097L143.476 8.73938V11.8429H138.62V10.114C138.62 9.30892 138.8 8.69286 139.155 8.282C139.508 7.87607 140.012 7.6697 140.656 7.6697C141.119 7.6697 141.598 7.77854 142.08 7.99317L142.2 8.04708V5.2724L142.144 5.25153C141.694 5.09009 141.082 5.00879 140.324 5.00879C139.369 5.00879 138.501 5.21646 137.743 5.62804C136.986 6.0402 136.39 6.62858 135.972 7.37667C135.556 8.12389 135.345 8.9869 135.345 9.94194V11.8427H133.064V14.4774H135.345V25.5769H138.62V14.4774H143.476V21.5309C143.476 24.4359 144.848 25.908 147.554 25.908C147.999 25.908 148.466 25.856 148.944 25.7541C149.431 25.6495 149.762 25.545 149.957 25.4334L150 25.4079V22.7489L149.867 22.8368C149.689 22.9551 149.468 23.0517 149.208 23.1236C148.948 23.1968 148.73 23.2335 148.562 23.2335C147.928 23.2335 147.459 23.0629 147.168 22.7262C146.874 22.3866 146.724 21.7925 146.724 20.9615V14.4774H150ZM125.752 23.2339C124.563 23.2339 123.626 22.8403 122.966 22.065C122.301 21.2857 121.965 20.1747 121.965 18.7632C121.965 17.3069 122.301 16.1671 122.966 15.3741C123.627 14.5863 124.555 14.1864 125.725 14.1864C126.86 14.1864 127.764 14.5683 128.412 15.322C129.062 16.0797 129.393 17.2104 129.393 18.6836C129.393 20.175 129.082 21.3206 128.47 22.087C127.862 22.8475 126.947 23.2339 125.752 23.2339V23.2339ZM125.897 11.5119C123.63 11.5119 121.829 12.1755 120.544 13.4843C119.261 14.7932 118.61 16.6046 118.61 18.8686C118.61 21.0189 119.246 22.7486 120.498 24.0087C121.751 25.2692 123.456 25.9077 125.566 25.9077C127.764 25.9077 129.529 25.2349 130.812 23.9079C132.096 22.5825 132.746 20.7882 132.746 18.5771C132.746 16.3931 132.136 14.6506 130.932 13.3989C129.727 12.1466 128.033 11.5119 125.897 11.5119V11.5119ZM113.331 11.5119C111.788 11.5119 110.513 11.9059 109.538 12.6829C108.557 13.4644 108.06 14.4895 108.06 15.7298C108.06 16.3746 108.167 16.9473 108.379 17.4331C108.591 17.9205 108.92 18.3496 109.357 18.7097C109.791 19.067 110.46 19.4412 111.347 19.8219C112.093 20.1284 112.649 20.3876 113.003 20.592C113.348 20.7923 113.593 20.9936 113.732 21.1896C113.866 21.3815 113.934 21.6441 113.934 21.9682C113.934 22.8909 113.243 23.3398 111.819 23.3398C111.291 23.3398 110.689 23.2297 110.029 23.0126C109.374 22.7988 108.755 22.4857 108.196 22.0842L108.06 21.9869V25.1356L108.109 25.1588C108.573 25.3724 109.157 25.5525 109.846 25.6943C110.533 25.8361 111.157 25.9083 111.699 25.9083C113.373 25.9083 114.721 25.5124 115.705 24.7308C116.694 23.9439 117.196 22.8946 117.196 21.6114C117.196 20.6856 116.926 19.8917 116.394 19.2514C115.865 18.6164 114.948 18.0334 113.668 17.518C112.648 17.1094 111.995 16.7701 111.726 16.5097C111.466 16.2581 111.334 15.9023 111.334 15.4517C111.334 15.0523 111.497 14.7323 111.831 14.4732C112.168 14.2128 112.637 14.0803 113.225 14.0803C113.77 14.0803 114.329 14.1664 114.884 14.3351C115.439 14.5038 115.926 14.7297 116.332 15.0061L116.466 15.0974V12.1106L116.415 12.0885C116.04 11.9278 115.545 11.7903 114.944 11.6787C114.346 11.5678 113.803 11.5119 113.331 11.5119V11.5119ZM99.5233 23.2339C98.335 23.2339 97.3977 22.8403 96.7375 22.065C96.0729 21.2857 95.7368 20.175 95.7368 18.7632C95.7368 17.3069 96.0733 16.1671 96.7382 15.3741C97.3984 14.5863 98.3263 14.1864 99.497 14.1864C100.632 14.1864 101.536 14.5683 102.183 15.322C102.834 16.0797 103.164 17.2104 103.164 18.6836C103.164 20.175 102.854 21.3206 102.241 22.087C101.633 22.8475 100.719 23.2339 99.5233 23.2339V23.2339ZM99.6693 11.5119C97.4012 11.5119 95.6 12.1755 94.3166 13.4843C93.0333 14.7932 92.3822 16.6046 92.3822 18.8686C92.3822 21.0198 93.0177 22.7486 94.2706 24.0087C95.5234 25.2692 97.2282 25.9077 99.3376 25.9077C101.535 25.9077 103.301 25.2349 104.584 23.9079C105.868 22.5825 106.518 20.7882 106.518 18.5771C106.518 16.3931 105.908 14.6506 104.704 13.3989C103.499 12.1466 101.805 11.5119 99.6693 11.5119V11.5119ZM87.4115 14.2212V11.8427H84.1769V25.5766H87.4115V18.5512C87.4115 17.3566 87.6827 16.3752 88.2179 15.6339C88.7462 14.9015 89.4502 14.5303 90.3098 14.5303C90.6012 14.5303 90.9282 14.5783 91.2824 14.6732C91.633 14.7676 91.8869 14.87 92.0367 14.9778L92.1727 15.0762V11.8193L92.1203 11.7968C91.819 11.669 91.3929 11.6045 90.8537 11.6045C90.0408 11.6045 89.3134 11.8653 88.6903 12.379C88.1434 12.8304 87.7482 13.4493 87.4459 14.2212H87.4115ZM78.3842 11.5119C76.9002 11.5119 75.5766 11.8297 74.4508 12.4562C73.3226 13.0841 72.4501 13.9806 71.8565 15.1206C71.2654 16.2578 70.9654 17.5861 70.9654 19.0675C70.9654 20.3652 71.2563 21.556 71.8313 22.6055C72.4067 23.6568 73.221 24.4792 74.2518 25.0496C75.2812 25.6193 76.4709 25.9082 77.7881 25.9082C79.3254 25.9082 80.6378 25.6012 81.6901 24.9959L81.7326 24.9715V22.0118L81.5967 22.1109C81.12 22.4577 80.5873 22.7345 80.0142 22.9339C79.4425 23.1332 78.9212 23.2339 78.4642 23.2339C77.1949 23.2339 76.176 22.8373 75.4364 22.0553C74.6952 21.2722 74.3194 20.1727 74.3194 18.7891C74.3194 17.3969 74.7114 16.2691 75.4837 15.437C76.2538 14.6073 77.2746 14.1864 78.5176 14.1864C79.5807 14.1864 80.6168 14.546 81.5969 15.2561L81.7326 15.3545V12.2359L81.6888 12.2113C81.3199 12.0051 80.8169 11.8348 80.1923 11.7056C79.5704 11.5768 78.9622 11.5119 78.3842 11.5119V11.5119ZM68.7376 11.8429H65.503V25.5766H68.7376V11.8429V11.8429ZM67.1534 5.99223C66.621 5.99223 66.1566 6.17324 65.7752 6.53192C65.3921 6.89162 65.1978 7.3445 65.1978 7.87897C65.1978 8.40504 65.3898 8.84966 65.7692 9.19979C66.1462 9.54891 66.612 9.72586 67.1535 9.72586C67.6949 9.72586 68.1624 9.54891 68.5439 9.20037C68.9278 8.84966 69.1226 8.40519 69.1226 7.87897C69.1226 7.36319 68.9331 6.91495 68.5597 6.54641C68.1866 6.1786 67.7133 5.99223 67.1534 5.99223ZM59.0827 10.8296V25.5766H62.3838V6.41265H57.8149L52.0076 20.6471L46.372 6.41265H41.6171V25.5764H44.7192V10.8281H44.8257L50.7769 25.5766H53.118L58.9762 10.8296H59.0827V10.8296Z" fill="white"/>
<path d="M15.2167 15.2055H0V0.0078125H15.2167V15.2055Z" fill="white"/>
<path d="M32.0176 15.2055H16.8012V0.0078125H32.0176V15.2055Z" fill="white"/>
<path d="M15.2163 31.9915H0V16.7939H15.2163V31.9915Z" fill="white"/>
<path d="M32.0176 31.9915H16.8012V16.7939H32.0176V31.9915Z" fill="white"/>
    </g>
</g>
<defs>
<clipPath id="clip0_764_997">
<rect width="150" height="32" fill="white"/>
</clipPath>
</defs>
</svg>
