<svg width="115" height="20" viewBox="0 0 115 20" fill="none" xmlns="http://www.w3.org/2000/svg">
    <g id="logo" fill="white">
        <path
            d="M24.3001 19.3655H19.6172L27.9099 0.584969H31.8611L40.2513 19.3655H35.5684L33.9586 15.5118H25.9099L24.3001 19.3655ZM27.3245 12.0484H32.4952L29.9099 5.7557L27.3245 12.0484Z" />
        <path
            d="M50.7873 0.584961H42.0068V19.3654H46.2507V4.29228H50.7873C53.1288 4.29228 54.3971 5.26789 54.3971 7.12155V7.60936C54.3971 9.46301 53.1288 10.4874 50.7873 10.4874H47.6654V14.1459H50.7873C55.6654 14.1459 58.6898 11.7557 58.6898 7.90203V6.82886C58.6898 3.02399 55.6654 0.584961 50.7873 0.584961Z" />
        <path
            d="M80.6406 0.584961H94.8845V4.29228H84.8845V7.99959H93.1772V11.6581H84.8845V15.6581H95.1284V19.3167H80.6406V0.584961Z" />
        <path
            d="M97.666 0.584961H102.007L110.837 12.585L110.69 0.584961H114.934V19.3654H110.544L101.764 7.51179L101.861 19.4142H97.666V0.584961Z" />
        <path
            d="M70.1047 0.584961H61.3242V19.3654H65.5681V4.29228H70.1047C72.4462 4.29228 73.7145 5.26789 73.7145 7.12155V7.60936C73.7145 9.46301 72.4462 10.4874 70.1047 10.4874H66.9828V14.1459H70.1047C74.9828 14.1459 78.0072 11.7557 78.0072 7.90203V6.82886C78.0072 3.02399 74.9828 0.584961 70.1047 0.584961Z" />
        <path
            d="M15.5684 12.5366C14.5928 14.6341 12.4952 16.0488 10.0562 16.0488C6.3001 16.0488 4.39766 12.7317 4.39766 10.0488C4.39766 6.63415 6.88547 4.04878 10.3489 4.04878C12.983 4.04878 15.0806 6 15.8123 8.29268L19.9099 6.87805C19.3733 5.07317 18.3489 3.60976 17.0318 2.48781C17.0318 2.48781 16.983 2.4878 16.983 2.43902C16.9343 2.39024 16.9342 2.39025 16.8855 2.34146C15.1294 0.780489 12.8367 0 10.2025 0C7.86107 0 5.71474 0.82927 4.30011 1.85366C1.86108 3.5122 0.104979 6.2439 0.00741768 9.90244C-0.0413628 11.122 0.153759 12.1951 0.495222 13.2195C0.983027 14.6341 3.61718 20 10.0562 20C12.6416 20 15.4708 19.2683 17.3733 17.1707C18.3001 16.2927 19.0318 15.1707 19.5196 13.8537L15.5684 12.5366Z"  />
    </g>
</svg>