<svg width="102" height="64" viewBox="0 0 102 64" fill="none" xmlns="http://www.w3.org/2000/svg">
    <g id="logo">
        <path
            d="M25.2875 8.02464L25.2876 8.02458C40.5507 1.10218 49.0168 0.799999 50.9997 0.799999C52.9834 0.799999 61.4495 1.10218 76.7126 8.02458L76.7127 8.02464C85.9897 12.2394 93.2737 16.035 97.331 18.4206C99.2741 19.563 100.606 21.4718 100.839 23.7255C101.32 28.3832 101.32 35.6025 100.84 40.2671C100.606 42.5298 99.268 44.446 97.3169 45.5919C93.2568 47.9765 85.979 51.7711 76.7127 55.9754C61.4487 62.9052 52.9833 63.2 50.9997 63.2C49.0169 63.2 40.5508 62.9052 25.2875 55.9754C16.0221 51.7715 8.74476 47.9772 4.68418 45.5926C2.73206 44.4463 1.39311 42.5291 1.16002 40.2653C0.679768 35.6012 0.679901 28.3845 1.16098 23.7274C1.3939 21.4725 2.726 19.5628 4.67001 18.4199C8.7279 16.0343 16.0114 12.239 25.2875 8.02464ZM25.8272 54.7759L25.8272 54.7759C40.8029 61.5722 49.226 61.8835 50.9997 61.8835C52.7734 61.8835 61.1973 61.5722 76.173 54.7759L76.2557 54.958L76.173 54.7759C85.3233 50.6245 92.0683 47.1022 95.9925 44.8414C98.0408 43.6614 99.4186 41.6548 99.6217 39.3112C99.9921 35.0378 99.9921 28.9706 99.6218 24.697C99.4186 22.3529 98.0406 20.3458 95.9922 19.1647C92.068 16.9018 85.3233 13.3755 76.173 9.2241L76.2557 9.04197L76.173 9.22409C61.1973 2.4278 52.7741 2.11656 50.9997 2.11656C49.226 2.11656 40.8029 2.4278 25.8272 9.22409L25.7445 9.04197L25.8272 9.2241C16.6772 13.3754 9.93261 16.9016 6.00802 19.1645C3.95923 20.3458 2.58073 22.3532 2.37766 24.6978C2.00757 28.9708 2.00778 35.0364 2.37786 39.3095C2.58093 41.6541 3.95929 43.6616 6.00853 44.8421C9.93303 47.1029 16.6774 50.6249 25.8272 54.7759Z"
            fill="white" stroke="white" stroke-width="0.4" />
        <path
            d="M63.2168 22.6016H67.6873L76.779 34.9582L76.6283 22.6016H80.9983V41.9402H76.4776L67.4361 29.7343L67.5366 41.9904H63.2168V22.6016Z"
            fill="white" />
        <path
            d="M52.6938 22.6016H43.6523V41.9402H48.0224V26.4191H52.6938C55.1048 26.4191 56.4108 27.4237 56.4108 29.3324V29.8347C56.4108 31.7435 55.1048 32.7983 52.6938 32.7983H49.4791V36.5656H52.6938C57.7168 36.5656 60.8311 34.1043 60.8311 30.1361V29.031C60.8311 25.1131 57.7168 22.6016 52.6938 22.6016Z"
            fill="white" />
        <path
            d="M37.0311 34.9092C36.0265 37.0691 33.8666 38.5257 31.3551 38.5257C27.4873 38.5257 25.5284 35.1101 25.5284 32.3474C25.5284 28.8313 28.0901 26.1691 31.6564 26.1691C34.3689 26.1691 36.5288 28.1783 37.2822 30.5391L41.5016 29.0825C40.949 27.2239 39.8942 25.717 38.538 24.5617C38.538 24.5617 38.4878 24.5617 38.4878 24.5115C38.4375 24.4613 38.4375 24.4613 38.3873 24.4111C36.579 22.8037 34.2182 22 31.5057 22C29.0947 22 26.8846 22.8539 25.4279 23.9087C22.9164 25.6166 21.1081 28.4295 21.0076 32.1967C20.9574 33.4525 21.1583 34.5576 21.5099 35.6124C22.0122 37.0691 24.7247 42.5944 31.3551 42.5944C34.0173 42.5944 36.9306 41.8409 38.8896 39.681C39.844 38.7769 40.5974 37.6216 41.0997 36.2654L37.0311 34.9092Z"
            fill="white" />
    </g>
</svg>